# xmcd CD database file
#
# Track frame offsets:
#	150
#	19761
#	56599
#	76499
#	119186
#	148386
#	173799
#	199174
#	221820
#	248647
#
# Disc length: 3691 seconds
#
# Revision: 3
# Processed by: cddbd v1.5.2PL0 Copyright (c) Steve Scherf et al.
# Submitted via: CDex 1.70beta2
#
DISCID=9a0e690a
DTITLE=Oscar Peterson  - Date with Oscar CD 10
DYEAR=1900
DGENRE=Jazz
TTITLE0=52nd Street Theme
TTITLE1=Love You Madly
TTITLE2=Nuages
TTITLE3=How High The Moon
TTITLE4=Gypsy In My Soul
TTITLE5=Noreen's Nocturne
TTITLE6=Swinging On A Star
TTITLE7=Flamingo
TTITLE8=How About You?
TTITLE9=Falling In Love With Love
EXTD=Giants Of Jazz CD 53209 (P) 1996\n\nStratford, Ontario, Canada, August 8, 1956\n\nOscar Peterson: piano\nHerb Ellis: guitar\nRay Brown: bass
EXTT0=
EXTT1=
EXTT2=
EXTT3=
EXTT4=
EXTT5=
EXTT6=
EXTT7=
EXTT8=
EXTT9=
PLAYORDER=
